<svg width="41" height="37" viewBox="0 0 41 37" fill="none" xmlns="http://www.w3.org/2000/svg">
<g id="icon / heroicons / Solid / menu-alt-2">
<g id="Icon">
<path fill-rule="evenodd" clip-rule="evenodd" d="M6.15002 9.15178C6.15002 8.14091 7.06784 7.32143 8.20002 7.32143H32.8C33.9322 7.32143 34.85 8.14091 34.85 9.15178C34.85 10.1627 33.9322 10.9821 32.8 10.9821H8.20002C7.06784 10.9821 6.15002 10.1627 6.15002 9.15178Z" fill="#FFDBC3"/>
<path fill-rule="evenodd" clip-rule="evenodd" d="M6.15002 18.3036C6.15002 17.2927 7.06784 16.4732 8.20002 16.4732H32.8C33.9322 16.4732 34.85 17.2927 34.85 18.3036C34.85 19.3144 33.9322 20.1339 32.8 20.1339H8.20002C7.06784 20.1339 6.15002 19.3144 6.15002 18.3036Z" fill="#FFDBC3"/>
<path fill-rule="evenodd" clip-rule="evenodd" d="M6.15002 27.4554C6.15002 26.4445 7.06784 25.625 8.20002 25.625H20.5C21.6322 25.625 22.55 26.4445 22.55 27.4554C22.55 28.4662 21.6322 29.2857 20.5 29.2857H8.20002C7.06784 29.2857 6.15002 28.4662 6.15002 27.4554Z" fill="#FFDBC3"/>
</g>
</g>
</svg>
