<svg width="31" height="31" viewBox="0 0 31 31" fill="none" xmlns="http://www.w3.org/2000/svg">
<path fill-rule="evenodd" clip-rule="evenodd" d="M25.8267 2.58334H5.17293C3.7521 2.58334 2.5896 3.74584 2.5896 5.16667V28.4167L7.74335 23.25H25.8267C27.2475 23.25 28.41 22.0875 28.41 20.6667V5.16667C28.41 3.74584 27.2475 2.58334 25.8267 2.58334ZM16.785 15.5V18.0833H14.2017V15.5H16.785ZM15.4934 12.9167C16.2038 12.9167 16.785 12.3354 16.785 11.625V9.04167C16.785 8.33125 16.2038 7.75 15.4934 7.75C14.783 7.75 14.2017 8.33125 14.2017 9.04167V11.625C14.2017 12.3354 14.783 12.9167 15.4934 12.9167Z" fill="#FFDBC3"/>
</svg>
